<svg width="430" height="932" viewBox="0 0 430 932" fill="none" xmlns="http://www.w3.org/2000/svg">
<rect width="430" height="932" rx="55" fill="black"/>
<rect width="430" height="932" rx="55" fill="black"/>
<rect x="50" y="655" width="56" height="15" rx="7.5" fill="#23A6F0"/>
<rect x="115" y="655" width="56" height="15" rx="7.5" fill="#E6E6E6"/>
<rect x="180" y="655" width="56" height="15" rx="7.5" fill="#E6E6E6"/>
<rect x="245" y="655" width="56" height="15" rx="7.5" fill="#E6E6E6"/>
<rect x="310" y="655" width="56" height="15" rx="7.5" fill="#DCDCDC"/>
<rect x="27" y="204" width="375" height="448" rx="79" fill="url(#paint0_linear_34_6)"/>
<rect x="50" y="724" width="330" height="68" rx="34" fill="#23A6F0"/>
<path d="M119.777 767.24C118.465 767.24 117.209 767.056 116.009 766.688C114.809 766.304 113.857 765.816 113.153 765.224L114.233 762.8C114.905 763.328 115.737 763.768 116.729 764.12C117.721 764.472 118.737 764.648 119.777 764.648C120.657 764.648 121.369 764.552 121.913 764.36C122.457 764.168 122.857 763.912 123.113 763.592C123.369 763.256 123.497 762.88 123.497 762.464C123.497 761.952 123.313 761.544 122.945 761.24C122.577 760.92 122.097 760.672 121.505 760.496C120.929 760.304 120.281 760.128 119.561 759.968C118.857 759.808 118.145 759.624 117.425 759.416C116.721 759.192 116.073 758.912 115.48 758.576C114.905 758.224 114.433 757.76 114.065 757.184C113.697 756.608 113.513 755.872 113.513 754.976C113.513 754.064 113.753 753.232 114.233 752.48C114.729 751.712 115.473 751.104 116.465 750.656C117.473 750.192 118.745 749.96 120.281 749.96C121.289 749.96 122.289 750.088 123.281 750.344C124.273 750.6 125.137 750.968 125.872 751.448L124.889 753.872C124.137 753.424 123.361 753.096 122.561 752.888C121.761 752.664 120.993 752.552 120.257 752.552C119.393 752.552 118.689 752.656 118.145 752.864C117.617 753.072 117.225 753.344 116.969 753.68C116.729 754.016 116.609 754.4 116.609 754.832C116.609 755.344 116.785 755.76 117.137 756.08C117.505 756.384 117.977 756.624 118.553 756.8C119.145 756.976 119.801 757.152 120.521 757.328C121.241 757.488 121.953 757.672 122.657 757.88C123.377 758.088 124.025 758.36 124.601 758.696C125.193 759.032 125.665 759.488 126.017 760.064C126.385 760.64 126.569 761.368 126.569 762.248C126.569 763.144 126.321 763.976 125.825 764.744C125.345 765.496 124.601 766.104 123.593 766.568C122.585 767.016 121.313 767.24 119.777 767.24ZM135.598 767.168C134.174 767.168 132.926 766.888 131.854 766.328C130.798 765.752 129.974 764.968 129.382 763.976C128.806 762.984 128.518 761.856 128.518 760.592C128.518 759.312 128.798 758.184 129.358 757.208C129.934 756.216 130.718 755.44 131.71 754.88C132.718 754.32 133.862 754.04 135.142 754.04C136.39 754.04 137.502 754.312 138.478 754.856C139.454 755.4 140.222 756.168 140.782 757.16C141.342 758.152 141.622 759.32 141.622 760.664C141.622 760.792 141.614 760.936 141.598 761.096C141.598 761.256 141.59 761.408 141.574 761.552H130.894V759.56H139.99L138.814 760.184C138.83 759.448 138.678 758.8 138.358 758.24C138.038 757.68 137.598 757.24 137.038 756.92C136.494 756.6 135.862 756.44 135.142 756.44C134.406 756.44 133.758 756.6 133.198 756.92C132.654 757.24 132.222 757.688 131.902 758.264C131.598 758.824 131.446 759.488 131.446 760.256V760.736C131.446 761.504 131.622 762.184 131.974 762.776C132.326 763.368 132.822 763.824 133.462 764.144C134.102 764.464 134.838 764.624 135.67 764.624C136.39 764.624 137.038 764.512 137.614 764.288C138.19 764.064 138.702 763.712 139.15 763.232L140.758 765.08C140.182 765.752 139.454 766.272 138.574 766.64C137.71 766.992 136.718 767.168 135.598 767.168ZM144.704 767V749.192H147.704V767H144.704ZM157.865 767.168C156.441 767.168 155.193 766.888 154.121 766.328C153.065 765.752 152.241 764.968 151.649 763.976C151.073 762.984 150.785 761.856 150.785 760.592C150.785 759.312 151.065 758.184 151.625 757.208C152.201 756.216 152.985 755.44 153.977 754.88C154.985 754.32 156.129 754.04 157.409 754.04C158.657 754.04 159.769 754.312 160.745 754.856C161.721 755.4 162.489 756.168 163.049 757.16C163.609 758.152 163.889 759.32 163.889 760.664C163.889 760.792 163.881 760.936 163.865 761.096C163.865 761.256 163.857 761.408 163.841 761.552H153.161V759.56H162.257L161.081 760.184C161.097 759.448 160.945 758.8 160.625 758.24C160.305 757.68 159.865 757.24 159.305 756.92C158.761 756.6 158.129 756.44 157.409 756.44C156.673 756.44 156.025 756.6 155.465 756.92C154.921 757.24 154.489 757.688 154.169 758.264C153.865 758.824 153.713 759.488 153.713 760.256V760.736C153.713 761.504 153.889 762.184 154.241 762.776C154.593 763.368 155.089 763.824 155.729 764.144C156.369 764.464 157.105 764.624 157.937 764.624C158.657 764.624 159.305 764.512 159.881 764.288C160.457 764.064 160.969 763.712 161.417 763.232L163.025 765.08C162.449 765.752 161.721 766.272 160.841 766.64C159.977 766.992 158.985 767.168 157.865 767.168ZM172.851 767.168C171.507 767.168 170.307 766.888 169.251 766.328C168.211 765.752 167.395 764.968 166.803 763.976C166.211 762.984 165.915 761.856 165.915 760.592C165.915 759.312 166.211 758.184 166.803 757.208C167.395 756.216 168.211 755.44 169.251 754.88C170.307 754.32 171.507 754.04 172.851 754.04C174.099 754.04 175.195 754.296 176.139 754.808C177.099 755.304 177.827 756.04 178.323 757.016L176.019 758.36C175.635 757.752 175.163 757.304 174.603 757.016C174.059 756.728 173.467 756.584 172.827 756.584C172.091 756.584 171.427 756.744 170.835 757.064C170.243 757.384 169.779 757.848 169.443 758.456C169.107 759.048 168.939 759.76 168.939 760.592C168.939 761.424 169.107 762.144 169.443 762.752C169.779 763.344 170.243 763.8 170.835 764.12C171.427 764.44 172.091 764.6 172.827 764.6C173.467 764.6 174.059 764.456 174.603 764.168C175.163 763.88 175.635 763.432 176.019 762.824L178.323 764.168C177.827 765.128 177.099 765.872 176.139 766.4C175.195 766.912 174.099 767.168 172.851 767.168ZM186.105 767.168C184.697 767.168 183.609 766.808 182.84 766.088C182.073 765.352 181.689 764.272 181.689 762.848V751.352H184.689V762.776C184.689 763.384 184.841 763.856 185.145 764.192C185.465 764.528 185.905 764.696 186.465 764.696C187.137 764.696 187.697 764.52 188.145 764.168L188.985 766.304C188.633 766.592 188.201 766.808 187.689 766.952C187.177 767.096 186.649 767.168 186.105 767.168ZM179.577 756.68V754.28H188.121V756.68H179.577ZM206.381 767V764.408L206.213 763.856V759.32C206.213 758.44 205.949 757.76 205.421 757.28C204.893 756.784 204.093 756.536 203.021 756.536C202.301 756.536 201.589 756.648 200.885 756.872C200.197 757.096 199.613 757.408 199.133 757.808L197.957 755.624C198.645 755.096 199.461 754.704 200.405 754.448C201.365 754.176 202.357 754.04 203.381 754.04C205.237 754.04 206.669 754.488 207.677 755.384C208.701 756.264 209.213 757.632 209.213 759.488V767H206.381ZM202.349 767.168C201.389 767.168 200.549 767.008 199.829 766.688C199.109 766.352 198.549 765.896 198.149 765.32C197.765 764.728 197.573 764.064 197.573 763.328C197.573 762.608 197.741 761.96 198.077 761.384C198.429 760.808 198.997 760.352 199.781 760.016C200.565 759.68 201.605 759.512 202.901 759.512H206.621V761.504H203.117C202.093 761.504 201.405 761.672 201.053 762.008C200.701 762.328 200.525 762.728 200.525 763.208C200.525 763.752 200.741 764.184 201.173 764.504C201.605 764.824 202.205 764.984 202.973 764.984C203.709 764.984 204.365 764.816 204.941 764.48C205.533 764.144 205.957 763.648 206.213 762.992L206.717 764.792C206.429 765.544 205.909 766.128 205.157 766.544C204.421 766.96 203.485 767.168 202.349 767.168ZM220.535 754.04C221.559 754.04 222.471 754.24 223.271 754.64C224.087 755.04 224.727 755.656 225.191 756.488C225.655 757.304 225.887 758.36 225.887 759.656V767H222.887V760.04C222.887 758.904 222.615 758.056 222.071 757.496C221.543 756.936 220.799 756.656 219.839 756.656C219.135 756.656 218.511 756.8 217.967 757.088C217.423 757.376 216.999 757.808 216.695 758.384C216.407 758.944 216.263 759.656 216.263 760.52V767H213.263V754.184H216.119V757.64L215.615 756.584C216.063 755.768 216.711 755.144 217.559 754.712C218.423 754.264 219.415 754.04 220.535 754.04ZM242.486 767.168C241.174 767.168 240.006 766.888 238.982 766.328C237.958 765.752 237.15 764.968 236.558 763.976C235.966 762.984 235.67 761.856 235.67 760.592C235.67 759.312 235.966 758.184 236.558 757.208C237.15 756.216 237.958 755.44 238.982 754.88C240.006 754.32 241.174 754.04 242.486 754.04C243.814 754.04 244.99 754.32 246.014 754.88C247.054 755.44 247.862 756.208 248.438 757.184C249.03 758.16 249.326 759.296 249.326 760.592C249.326 761.856 249.03 762.984 248.438 763.976C247.862 764.968 247.054 765.752 246.014 766.328C244.99 766.888 243.814 767.168 242.486 767.168ZM242.486 764.6C243.222 764.6 243.878 764.44 244.454 764.12C245.03 763.8 245.478 763.336 245.798 762.728C246.134 762.12 246.302 761.408 246.302 760.592C246.302 759.76 246.134 759.048 245.798 758.456C245.478 757.848 245.03 757.384 244.454 757.064C243.878 756.744 243.23 756.584 242.51 756.584C241.774 756.584 241.118 756.744 240.542 757.064C239.982 757.384 239.534 757.848 239.198 758.456C238.862 759.048 238.694 759.76 238.694 760.592C238.694 761.408 238.862 762.12 239.198 762.728C239.534 763.336 239.982 763.8 240.542 764.12C241.118 764.44 241.766 764.6 242.486 764.6ZM259.499 767.168C258.459 767.168 257.507 766.928 256.643 766.448C255.795 765.968 255.115 765.248 254.603 764.288C254.107 763.312 253.859 762.08 253.859 760.592C253.859 759.088 254.099 757.856 254.579 756.896C255.075 755.936 255.747 755.224 256.595 754.76C257.443 754.28 258.411 754.04 259.499 754.04C260.763 754.04 261.875 754.312 262.835 754.856C263.811 755.4 264.579 756.16 265.139 757.136C265.715 758.112 266.003 759.264 266.003 760.592C266.003 761.92 265.715 763.08 265.139 764.072C264.579 765.048 263.811 765.808 262.835 766.352C261.875 766.896 260.763 767.168 259.499 767.168ZM252.395 771.656V754.184H255.251V757.208L255.155 760.616L255.395 764.024V771.656H252.395ZM259.163 764.6C259.883 764.6 260.523 764.44 261.083 764.12C261.659 763.8 262.115 763.336 262.451 762.728C262.787 762.12 262.955 761.408 262.955 760.592C262.955 759.76 262.787 759.048 262.451 758.456C262.115 757.848 261.659 757.384 261.083 757.064C260.523 756.744 259.883 756.584 259.163 756.584C258.443 756.584 257.795 756.744 257.219 757.064C256.643 757.384 256.187 757.848 255.851 758.456C255.515 759.048 255.347 759.76 255.347 760.592C255.347 761.408 255.515 762.12 255.851 762.728C256.187 763.336 256.643 763.8 257.219 764.12C257.795 764.44 258.443 764.6 259.163 764.6ZM273.872 767.168C272.464 767.168 271.376 766.808 270.608 766.088C269.84 765.352 269.456 764.272 269.456 762.848V751.352H272.456V762.776C272.456 763.384 272.608 763.856 272.912 764.192C273.232 764.528 273.672 764.696 274.232 764.696C274.904 764.696 275.464 764.52 275.912 764.168L276.752 766.304C276.4 766.592 275.968 766.808 275.456 766.952C274.944 767.096 274.416 767.168 273.872 767.168ZM267.344 756.68V754.28H275.888V756.68H267.344ZM279.42 767V754.184H282.42V767H279.42ZM280.932 752.072C280.372 752.072 279.908 751.896 279.54 751.544C279.188 751.192 279.012 750.768 279.012 750.272C279.012 749.76 279.188 749.336 279.54 749C279.908 748.648 280.372 748.472 280.932 748.472C281.492 748.472 281.948 748.64 282.3 748.976C282.668 749.296 282.852 749.704 282.852 750.2C282.852 750.728 282.676 751.176 282.324 751.544C281.972 751.896 281.508 752.072 280.932 752.072ZM292.317 767.168C291.005 767.168 289.837 766.888 288.813 766.328C287.789 765.752 286.981 764.968 286.389 763.976C285.797 762.984 285.501 761.856 285.501 760.592C285.501 759.312 285.797 758.184 286.389 757.208C286.981 756.216 287.789 755.44 288.813 754.88C289.837 754.32 291.005 754.04 292.317 754.04C293.645 754.04 294.821 754.32 295.845 754.88C296.885 755.44 297.693 756.208 298.269 757.184C298.861 758.16 299.157 759.296 299.157 760.592C299.157 761.856 298.861 762.984 298.269 763.976C297.693 764.968 296.885 765.752 295.845 766.328C294.821 766.888 293.645 767.168 292.317 767.168ZM292.317 764.6C293.053 764.6 293.709 764.44 294.285 764.12C294.861 763.8 295.309 763.336 295.629 762.728C295.965 762.12 296.133 761.408 296.133 760.592C296.133 759.76 295.965 759.048 295.629 758.456C295.309 757.848 294.861 757.384 294.285 757.064C293.709 756.744 293.061 756.584 292.341 756.584C291.605 756.584 290.949 756.744 290.373 757.064C289.813 757.384 289.365 757.848 289.029 758.456C288.693 759.048 288.525 759.76 288.525 760.592C288.525 761.408 288.693 762.12 289.029 762.728C289.365 763.336 289.813 763.8 290.373 764.12C290.949 764.44 291.597 764.6 292.317 764.6ZM309.498 754.04C310.522 754.04 311.434 754.24 312.234 754.64C313.05 755.04 313.69 755.656 314.154 756.488C314.618 757.304 314.85 758.36 314.85 759.656V767H311.85V760.04C311.85 758.904 311.578 758.056 311.034 757.496C310.506 756.936 309.762 756.656 308.802 756.656C308.098 756.656 307.474 756.8 306.93 757.088C306.386 757.376 305.962 757.808 305.658 758.384C305.37 758.944 305.226 759.656 305.226 760.52V767H302.226V754.184H305.082V757.64L304.578 756.584C305.026 755.768 305.674 755.144 306.522 754.712C307.386 754.264 308.378 754.04 309.498 754.04Z" fill="white"/>
<path d="M104.735 175L97.3109 152.6H101.631L108.255 172.856H106.111L112.991 152.6H116.831L123.519 172.856H121.439L128.223 152.6H132.191L124.767 175H120.351L114.239 156.728H115.391L109.183 175H104.735ZM145.561 157.72C146.926 157.72 148.142 157.987 149.209 158.52C150.297 159.053 151.15 159.875 151.769 160.984C152.387 162.072 152.697 163.48 152.697 165.208V175H148.697V165.72C148.697 164.205 148.334 163.075 147.609 162.328C146.905 161.581 145.913 161.208 144.633 161.208C143.694 161.208 142.862 161.4 142.137 161.784C141.411 162.168 140.846 162.744 140.441 163.512C140.057 164.259 139.865 165.208 139.865 166.36V175H135.865V151.256H139.865V162.52L139.001 161.112C139.598 160.024 140.462 159.192 141.593 158.616C142.745 158.019 144.067 157.72 145.561 157.72ZM165.682 175.224C163.933 175.224 162.375 174.851 161.01 174.104C159.645 173.336 158.567 172.291 157.778 170.968C156.989 169.645 156.594 168.141 156.594 166.456C156.594 164.749 156.989 163.245 157.778 161.944C158.567 160.621 159.645 159.587 161.01 158.84C162.375 158.093 163.933 157.72 165.682 157.72C167.453 157.72 169.021 158.093 170.386 158.84C171.773 159.587 172.85 160.611 173.618 161.912C174.407 163.213 174.802 164.728 174.802 166.456C174.802 168.141 174.407 169.645 173.618 170.968C172.85 172.291 171.773 173.336 170.386 174.104C169.021 174.851 167.453 175.224 165.682 175.224ZM165.682 171.8C166.663 171.8 167.538 171.587 168.306 171.16C169.074 170.733 169.671 170.115 170.098 169.304C170.546 168.493 170.77 167.544 170.77 166.456C170.77 165.347 170.546 164.397 170.098 163.608C169.671 162.797 169.074 162.179 168.306 161.752C167.538 161.325 166.674 161.112 165.714 161.112C164.733 161.112 163.858 161.325 163.09 161.752C162.343 162.179 161.746 162.797 161.298 163.608C160.85 164.397 160.626 165.347 160.626 166.456C160.626 167.544 160.85 168.493 161.298 169.304C161.746 170.115 162.343 170.733 163.09 171.16C163.858 171.587 164.722 171.8 165.682 171.8ZM189.279 181.432C188.447 181.432 187.615 181.293 186.783 181.016C185.951 180.739 185.258 180.355 184.703 179.864L186.303 176.92C186.708 177.283 187.167 177.571 187.679 177.784C188.191 177.997 188.714 178.104 189.247 178.104C189.972 178.104 190.559 177.923 191.007 177.56C191.455 177.197 191.871 176.589 192.255 175.736L193.247 173.496L193.567 173.016L200.031 157.912H203.871L195.871 176.376C195.338 177.656 194.74 178.669 194.079 179.416C193.439 180.163 192.714 180.685 191.903 180.984C191.114 181.283 190.239 181.432 189.279 181.432ZM192.799 175.608L185.087 157.912H189.247L195.519 172.664L192.799 175.608ZM213.782 175.224C212.033 175.224 210.475 174.851 209.11 174.104C207.745 173.336 206.667 172.291 205.878 170.968C205.089 169.645 204.694 168.141 204.694 166.456C204.694 164.749 205.089 163.245 205.878 161.944C206.667 160.621 207.745 159.587 209.11 158.84C210.475 158.093 212.033 157.72 213.782 157.72C215.553 157.72 217.121 158.093 218.486 158.84C219.873 159.587 220.95 160.611 221.718 161.912C222.507 163.213 222.902 164.728 222.902 166.456C222.902 168.141 222.507 169.645 221.718 170.968C220.95 172.291 219.873 173.336 218.486 174.104C217.121 174.851 215.553 175.224 213.782 175.224ZM213.782 171.8C214.763 171.8 215.638 171.587 216.406 171.16C217.174 170.733 217.771 170.115 218.198 169.304C218.646 168.493 218.87 167.544 218.87 166.456C218.87 165.347 218.646 164.397 218.198 163.608C217.771 162.797 217.174 162.179 216.406 161.752C215.638 161.325 214.774 161.112 213.814 161.112C212.833 161.112 211.958 161.325 211.19 161.752C210.443 162.179 209.846 162.797 209.398 163.608C208.95 164.397 208.726 165.347 208.726 166.456C208.726 167.544 208.95 168.493 209.398 169.304C209.846 170.115 210.443 170.733 211.19 171.16C211.958 171.587 212.822 171.8 213.782 171.8ZM234.159 175.224C232.708 175.224 231.428 174.957 230.319 174.424C229.21 173.869 228.346 173.037 227.727 171.928C227.108 170.797 226.799 169.379 226.799 167.672V157.912H230.799V167.128C230.799 168.664 231.14 169.816 231.823 170.584C232.527 171.331 233.519 171.704 234.799 171.704C235.738 171.704 236.548 171.512 237.231 171.128C237.935 170.744 238.479 170.168 238.863 169.4C239.268 168.632 239.471 167.683 239.471 166.552V157.912H243.471V175H239.663V170.392L240.335 171.8C239.759 172.909 238.916 173.763 237.807 174.36C236.698 174.936 235.482 175.224 234.159 175.224ZM268.48 175V171.544L268.256 170.808V164.76C268.256 163.587 267.904 162.68 267.2 162.04C266.496 161.379 265.429 161.048 264 161.048C263.04 161.048 262.091 161.197 261.152 161.496C260.235 161.795 259.456 162.211 258.816 162.744L257.248 159.832C258.165 159.128 259.253 158.605 260.512 158.264C261.792 157.901 263.115 157.72 264.48 157.72C266.955 157.72 268.864 158.317 270.208 159.512C271.573 160.685 272.256 162.509 272.256 164.984V175H268.48ZM263.104 175.224C261.824 175.224 260.704 175.011 259.744 174.584C258.784 174.136 258.037 173.528 257.504 172.76C256.992 171.971 256.736 171.085 256.736 170.104C256.736 169.144 256.96 168.28 257.408 167.512C257.877 166.744 258.635 166.136 259.68 165.688C260.725 165.24 262.112 165.016 263.84 165.016H268.8V167.672H264.128C262.763 167.672 261.845 167.896 261.376 168.344C260.907 168.771 260.672 169.304 260.672 169.944C260.672 170.669 260.96 171.245 261.536 171.672C262.112 172.099 262.912 172.312 263.936 172.312C264.917 172.312 265.792 172.088 266.56 171.64C267.349 171.192 267.915 170.531 268.256 169.656L268.928 172.056C268.544 173.059 267.851 173.837 266.848 174.392C265.867 174.947 264.619 175.224 263.104 175.224ZM277.59 175V157.912H281.398V162.616L280.95 161.24C281.462 160.088 282.262 159.213 283.35 158.616C284.459 158.019 285.835 157.72 287.478 157.72V161.528C287.307 161.485 287.147 161.464 286.998 161.464C286.848 161.443 286.699 161.432 286.55 161.432C285.035 161.432 283.83 161.88 282.934 162.776C282.038 163.651 281.59 164.963 281.59 166.712V175H277.59ZM298.947 175.224C297.048 175.224 295.384 174.851 293.955 174.104C292.547 173.336 291.448 172.291 290.659 170.968C289.891 169.645 289.507 168.141 289.507 166.456C289.507 164.749 289.88 163.245 290.627 161.944C291.395 160.621 292.44 159.587 293.763 158.84C295.107 158.093 296.632 157.72 298.339 157.72C300.003 157.72 301.485 158.083 302.787 158.808C304.088 159.533 305.112 160.557 305.859 161.88C306.605 163.203 306.979 164.76 306.979 166.552C306.979 166.723 306.968 166.915 306.947 167.128C306.947 167.341 306.936 167.544 306.915 167.736H292.675V165.08H304.803L303.235 165.912C303.256 164.931 303.053 164.067 302.627 163.32C302.2 162.573 301.613 161.987 300.867 161.56C300.141 161.133 299.299 160.92 298.339 160.92C297.357 160.92 296.493 161.133 295.747 161.56C295.021 161.987 294.445 162.584 294.019 163.352C293.613 164.099 293.411 164.984 293.411 166.008V166.648C293.411 167.672 293.645 168.579 294.115 169.368C294.584 170.157 295.245 170.765 296.099 171.192C296.952 171.619 297.933 171.832 299.043 171.832C300.003 171.832 300.867 171.683 301.635 171.384C302.403 171.085 303.085 170.616 303.683 169.976L305.827 172.44C305.059 173.336 304.088 174.029 302.915 174.52C301.763 174.989 300.44 175.224 298.947 175.224ZM314.063 167.576C314.063 166.787 314.191 166.093 314.447 165.496C314.703 164.899 315.034 164.365 315.439 163.896C315.845 163.427 316.271 162.989 316.719 162.584C317.189 162.179 317.626 161.784 318.031 161.4C318.437 161.016 318.767 160.611 319.023 160.184C319.279 159.757 319.407 159.277 319.407 158.744C319.407 157.848 319.045 157.123 318.319 156.568C317.594 156.013 316.623 155.736 315.407 155.736C314.234 155.736 313.21 155.949 312.335 156.376C311.482 156.803 310.767 157.411 310.191 158.2L307.087 156.184C307.983 154.968 309.157 154.019 310.607 153.336C312.058 152.632 313.775 152.28 315.759 152.28C317.317 152.28 318.682 152.515 319.855 152.984C321.029 153.432 321.946 154.093 322.607 154.968C323.269 155.821 323.599 156.867 323.599 158.104C323.599 158.957 323.461 159.704 323.183 160.344C322.927 160.984 322.586 161.549 322.159 162.04C321.754 162.509 321.317 162.957 320.847 163.384C320.378 163.789 319.93 164.195 319.503 164.6C319.098 165.005 318.767 165.443 318.511 165.912C318.255 166.381 318.127 166.936 318.127 167.576H314.063ZM316.111 175.224C315.365 175.224 314.746 174.979 314.255 174.488C313.786 173.997 313.551 173.411 313.551 172.728C313.551 172.045 313.786 171.469 314.255 171C314.746 170.509 315.365 170.264 316.111 170.264C316.858 170.264 317.466 170.509 317.935 171C318.405 171.469 318.639 172.045 318.639 172.728C318.639 173.411 318.405 173.997 317.935 174.488C317.466 174.979 316.858 175.224 316.111 175.224Z" fill="white"/>
<path d="M214.5 263C198.068 263 185.231 269.52 175.988 282.56C166.745 295.599 162.124 312.268 162.124 332.565C162.009 357.784 169.541 377.774 184.717 392.536C186.657 394.504 187.342 397.026 186.771 400.101L182.835 408.958C181.579 411.911 179.725 414.217 177.272 415.878C174.818 417.539 169.655 419.907 161.781 422.982C161.439 423.105 154.221 425.627 140.129 430.548C126.036 435.468 118.534 438.175 117.621 438.667C108.036 442.972 101.759 447.462 98.7926 452.137C95.5975 459.887 94 479.508 94 511H335C335 479.508 333.402 459.887 330.207 452.137C327.241 447.462 320.965 442.972 311.379 438.667C310.466 438.175 302.964 435.468 288.871 430.548C274.779 425.627 267.561 423.105 267.219 422.982C259.345 419.907 254.182 417.539 251.728 415.878C249.275 414.217 247.421 411.911 246.165 408.958L242.229 400.101C241.658 397.026 242.343 394.504 244.283 392.536C259.459 377.774 266.991 357.784 266.876 332.565C266.876 312.268 262.255 295.599 253.012 282.56C243.769 269.52 230.932 263 214.5 263Z" fill="white"/>
<path d="M117.988 557V531.8H128.896C131.152 531.8 133.096 532.172 134.728 532.916C136.36 533.636 137.62 534.68 138.508 536.048C139.396 537.416 139.84 539.048 139.84 540.944C139.84 542.816 139.396 544.436 138.508 545.804C137.62 547.172 136.36 548.228 134.728 548.972C133.096 549.692 131.152 550.052 128.896 550.052H121.228L123.82 547.424V557H117.988ZM123.82 548.072L121.228 545.3H128.572C130.372 545.3 131.716 544.916 132.604 544.148C133.492 543.38 133.936 542.312 133.936 540.944C133.936 539.552 133.492 538.472 132.604 537.704C131.716 536.936 130.372 536.552 128.572 536.552H121.228L123.82 533.78V548.072ZM155.512 557V553.22L155.152 552.392V545.624C155.152 544.424 154.78 543.488 154.036 542.816C153.316 542.144 152.2 541.808 150.688 541.808C149.656 541.808 148.636 541.976 147.628 542.312C146.644 542.624 145.804 543.056 145.108 543.608L143.092 539.684C144.148 538.94 145.42 538.364 146.908 537.956C148.396 537.548 149.908 537.344 151.444 537.344C154.396 537.344 156.688 538.04 158.32 539.432C159.952 540.824 160.768 542.996 160.768 545.948V557H155.512ZM149.608 557.288C148.096 557.288 146.8 557.036 145.72 556.532C144.64 556.004 143.812 555.296 143.236 554.408C142.66 553.52 142.372 552.524 142.372 551.42C142.372 550.268 142.648 549.26 143.2 548.396C143.776 547.532 144.676 546.86 145.9 546.38C147.124 545.876 148.72 545.624 150.688 545.624H155.836V548.9H151.3C149.98 548.9 149.068 549.116 148.564 549.548C148.084 549.98 147.844 550.52 147.844 551.168C147.844 551.888 148.12 552.464 148.672 552.896C149.248 553.304 150.028 553.508 151.012 553.508C151.948 553.508 152.788 553.292 153.532 552.86C154.276 552.404 154.816 551.744 155.152 550.88L156.016 553.472C155.608 554.72 154.864 555.668 153.784 556.316C152.704 556.964 151.312 557.288 149.608 557.288ZM172.567 557.288C170.911 557.288 169.315 557.096 167.779 556.712C166.267 556.304 165.067 555.8 164.179 555.2L166.051 551.168C166.939 551.72 167.983 552.176 169.183 552.536C170.407 552.872 171.607 553.04 172.783 553.04C174.079 553.04 174.991 552.884 175.519 552.572C176.071 552.26 176.347 551.828 176.347 551.276C176.347 550.82 176.131 550.484 175.699 550.268C175.291 550.028 174.739 549.848 174.043 549.728C173.347 549.608 172.579 549.488 171.739 549.368C170.923 549.248 170.095 549.092 169.255 548.9C168.415 548.684 167.647 548.372 166.951 547.964C166.255 547.556 165.691 547.004 165.259 546.308C164.851 545.612 164.647 544.712 164.647 543.608C164.647 542.384 164.995 541.304 165.691 540.368C166.411 539.432 167.443 538.7 168.787 538.172C170.131 537.62 171.739 537.344 173.611 537.344C174.931 537.344 176.275 537.488 177.643 537.776C179.011 538.064 180.151 538.484 181.063 539.036L179.191 543.032C178.255 542.48 177.307 542.108 176.347 541.916C175.411 541.7 174.499 541.592 173.611 541.592C172.363 541.592 171.451 541.76 170.875 542.096C170.299 542.432 170.011 542.864 170.011 543.392C170.011 543.872 170.215 544.232 170.623 544.472C171.055 544.712 171.619 544.904 172.315 545.048C173.011 545.192 173.767 545.324 174.583 545.444C175.423 545.54 176.263 545.696 177.103 545.912C177.943 546.128 178.699 546.44 179.371 546.848C180.067 547.232 180.631 547.772 181.063 548.468C181.495 549.14 181.711 550.028 181.711 551.132C181.711 552.332 181.351 553.4 180.631 554.336C179.911 555.248 178.867 555.968 177.499 556.496C176.155 557.024 174.511 557.288 172.567 557.288ZM191.892 557.288C190.236 557.288 188.64 557.096 187.104 556.712C185.592 556.304 184.392 555.8 183.504 555.2L185.376 551.168C186.264 551.72 187.308 552.176 188.508 552.536C189.732 552.872 190.932 553.04 192.108 553.04C193.404 553.04 194.316 552.884 194.844 552.572C195.396 552.26 195.672 551.828 195.672 551.276C195.672 550.82 195.456 550.484 195.024 550.268C194.616 550.028 194.064 549.848 193.368 549.728C192.672 549.608 191.904 549.488 191.064 549.368C190.248 549.248 189.42 549.092 188.58 548.9C187.74 548.684 186.972 548.372 186.276 547.964C185.58 547.556 185.016 547.004 184.584 546.308C184.176 545.612 183.972 544.712 183.972 543.608C183.972 542.384 184.32 541.304 185.016 540.368C185.736 539.432 186.768 538.7 188.112 538.172C189.456 537.62 191.064 537.344 192.936 537.344C194.256 537.344 195.6 537.488 196.968 537.776C198.336 538.064 199.476 538.484 200.388 539.036L198.516 543.032C197.58 542.48 196.632 542.108 195.672 541.916C194.736 541.7 193.824 541.592 192.936 541.592C191.688 541.592 190.776 541.76 190.2 542.096C189.624 542.432 189.336 542.864 189.336 543.392C189.336 543.872 189.54 544.232 189.948 544.472C190.38 544.712 190.944 544.904 191.64 545.048C192.336 545.192 193.092 545.324 193.908 545.444C194.748 545.54 195.588 545.696 196.428 545.912C197.268 546.128 198.024 546.44 198.696 546.848C199.392 547.232 199.956 547.772 200.388 548.468C200.82 549.14 201.036 550.028 201.036 551.132C201.036 552.332 200.676 553.4 199.956 554.336C199.236 555.248 198.192 555.968 196.824 556.496C195.48 557.024 193.836 557.288 191.892 557.288ZM214.313 557.288C212.105 557.288 210.161 556.856 208.481 555.992C206.825 555.128 205.541 553.952 204.629 552.464C203.717 550.952 203.261 549.236 203.261 547.316C203.261 545.372 203.705 543.656 204.593 542.168C205.505 540.656 206.741 539.48 208.301 538.64C209.861 537.776 211.625 537.344 213.593 537.344C215.489 537.344 217.193 537.752 218.705 538.568C220.241 539.36 221.453 540.512 222.341 542.024C223.229 543.512 223.673 545.3 223.673 547.388C223.673 547.604 223.661 547.856 223.637 548.144C223.613 548.408 223.589 548.66 223.565 548.9H207.833V545.624H220.613L218.453 546.596C218.453 545.588 218.249 544.712 217.841 543.968C217.433 543.224 216.869 542.648 216.149 542.24C215.429 541.808 214.589 541.592 213.629 541.592C212.669 541.592 211.817 541.808 211.073 542.24C210.353 542.648 209.789 543.236 209.381 544.004C208.973 544.748 208.769 545.636 208.769 546.668V547.532C208.769 548.588 208.997 549.524 209.453 550.34C209.933 551.132 210.593 551.744 211.433 552.176C212.297 552.584 213.305 552.788 214.457 552.788C215.489 552.788 216.389 552.632 217.157 552.32C217.949 552.008 218.669 551.54 219.317 550.916L222.305 554.156C221.417 555.164 220.301 555.944 218.957 556.496C217.613 557.024 216.065 557.288 214.313 557.288ZM239.384 537.344C240.92 537.344 242.288 537.656 243.488 538.28C244.712 538.88 245.672 539.816 246.368 541.088C247.064 542.336 247.412 543.944 247.412 545.912V557H241.796V546.776C241.796 545.216 241.448 544.064 240.752 543.32C240.08 542.576 239.12 542.204 237.872 542.204C236.984 542.204 236.18 542.396 235.46 542.78C234.764 543.14 234.212 543.704 233.804 544.472C233.42 545.24 233.228 546.224 233.228 547.424V557H227.612V537.632H232.976V542.996L231.968 541.376C232.664 540.08 233.66 539.084 234.956 538.388C236.252 537.692 237.728 537.344 239.384 537.344ZM261.951 564.272C260.127 564.272 258.363 564.044 256.659 563.588C254.979 563.156 253.575 562.496 252.447 561.608L254.679 557.576C255.495 558.248 256.527 558.776 257.775 559.16C259.047 559.568 260.295 559.772 261.519 559.772C263.511 559.772 264.951 559.328 265.839 558.44C266.751 557.552 267.207 556.232 267.207 554.48V551.564L267.567 546.704L267.495 541.808V537.632H272.823V553.76C272.823 557.36 271.887 560.012 270.015 561.716C268.143 563.42 265.455 564.272 261.951 564.272ZM261.087 556.064C259.287 556.064 257.655 555.68 256.191 554.912C254.751 554.12 253.587 553.028 252.699 551.636C251.835 550.22 251.403 548.576 251.403 546.704C251.403 544.808 251.835 543.164 252.699 541.772C253.587 540.356 254.751 539.264 256.191 538.496C257.655 537.728 259.287 537.344 261.087 537.344C262.719 537.344 264.159 537.68 265.407 538.352C266.655 539 267.627 540.02 268.323 541.412C269.019 542.78 269.367 544.544 269.367 546.704C269.367 548.84 269.019 550.604 268.323 551.996C267.627 553.364 266.655 554.384 265.407 555.056C264.159 555.728 262.719 556.064 261.087 556.064ZM262.203 551.456C263.187 551.456 264.063 551.264 264.831 550.88C265.599 550.472 266.199 549.908 266.631 549.188C267.063 548.468 267.279 547.64 267.279 546.704C267.279 545.744 267.063 544.916 266.631 544.22C266.199 543.5 265.599 542.948 264.831 542.564C264.063 542.156 263.187 541.952 262.203 541.952C261.219 541.952 260.343 542.156 259.575 542.564C258.807 542.948 258.195 543.5 257.739 544.22C257.307 544.916 257.091 545.744 257.091 546.704C257.091 547.64 257.307 548.468 257.739 549.188C258.195 549.908 258.807 550.472 259.575 550.88C260.343 551.264 261.219 551.456 262.203 551.456ZM287.862 557.288C285.654 557.288 283.71 556.856 282.03 555.992C280.374 555.128 279.09 553.952 278.178 552.464C277.266 550.952 276.81 549.236 276.81 547.316C276.81 545.372 277.254 543.656 278.142 542.168C279.054 540.656 280.29 539.48 281.85 538.64C283.41 537.776 285.174 537.344 287.142 537.344C289.038 537.344 290.742 537.752 292.254 538.568C293.79 539.36 295.002 540.512 295.89 542.024C296.778 543.512 297.222 545.3 297.222 547.388C297.222 547.604 297.21 547.856 297.186 548.144C297.162 548.408 297.138 548.66 297.114 548.9H281.382V545.624H294.162L292.002 546.596C292.002 545.588 291.798 544.712 291.39 543.968C290.982 543.224 290.418 542.648 289.698 542.24C288.978 541.808 288.138 541.592 287.178 541.592C286.218 541.592 285.366 541.808 284.622 542.24C283.902 542.648 283.338 543.236 282.93 544.004C282.522 544.748 282.318 545.636 282.318 546.668V547.532C282.318 548.588 282.546 549.524 283.002 550.34C283.482 551.132 284.142 551.744 284.982 552.176C285.846 552.584 286.854 552.788 288.006 552.788C289.038 552.788 289.938 552.632 290.706 552.32C291.498 552.008 292.218 551.54 292.866 550.916L295.854 554.156C294.966 555.164 293.85 555.944 292.506 556.496C291.162 557.024 289.614 557.288 287.862 557.288ZM301.161 557V537.632H306.525V543.104L305.769 541.52C306.345 540.152 307.269 539.12 308.541 538.424C309.813 537.704 311.361 537.344 313.185 537.344V542.528C312.945 542.504 312.729 542.492 312.537 542.492C312.345 542.468 312.141 542.456 311.925 542.456C310.389 542.456 309.141 542.9 308.181 543.788C307.245 544.652 306.777 546.008 306.777 547.856V557H301.161Z" fill="white"/>
<defs>
<linearGradient id="paint0_linear_34_6" x1="214.5" y1="204" x2="214.5" y2="652" gradientUnits="userSpaceOnUse">
<stop stop-color="#23A6F0"/>
<stop offset="1" stop-color="#D9D9D9" stop-opacity="0"/>
</linearGradient>
</defs>
</svg>
